<svg xmlns="http://www.w3.org/2000/svg" viewBox="0 0 50 25" width="75px">
  <g fill="none" fill-rule="evenodd">
    <path fill="#0D0803" d="M12 2.3v8.3C12 12 11 13 9.6 13H4.8v6H0V0h9.6C10.9 0 12 1 12 2.3zM7.2 7.7V5.3c0-.3-.3-.6-.6-.6H4.8v3.6h1.8c.3 0 .6-.3.6-.6zM13 19h5V0h-5zM45 19h5V0h-5z"></path>
    <path fill="#DA2032" d="M26.2 0v13.7c0 .3-.3.6-.6.6h-1.2a.6.6 0 0 1-.6-.6V0H19v16.7c0 1.2 1 2.3 2.4 2.3h7.2c1.3 0 2.4-1 2.4-2.3V0h-4.8z"></path>
    <path fill="#0D0803" d="M41.6 0h-7.2C33.1 0 32 1 32 2.3v7.2c0 1.3 1 2.4 2.4 2.4h4.2c.3 0 .6.2.6.5v1.3c0 .3-.3.6-.6.6h-1.2a.6.6 0 0 1-.6-.6V13H32v3.7c0 1.2 1 2.3 2.4 2.3h7.2c1.3 0 2.4-1 2.4-2.3V9.5c0-1.3-1-2.3-2.4-2.3h-4.2a.6.6 0 0 1-.6-.6V5.3c0-.3.3-.6.6-.6h1.2c.3 0 .6.3.6.6v.6H44V2.4C44 1 43 0 41.6 0M0 25h50v-5H0z"></path>
    <path fill="#FFF" d="M46.6 24.3c-.9 0-1.6-.7-1.6-1.6 0-1 .7-1.7 1.6-1.7 1 0 1.7.7 1.7 1.7 0 .9-.7 1.6-1.7 1.6zm0-3a1.4 1.4 0 0 0 0 2.8c.8 0 1.4-.7 1.4-1.4 0-.8-.6-1.4-1.4-1.4zm.8 2.2h-.3l-.5-.8h-.3v.8H46v-1.8h.8c.3 0 .6.1.6.5s-.2.5-.5.5l.5.8zm-.6-1.5h-.5v.5h.3c.2 0 .6 0 .6-.3 0-.2-.3-.2-.4-.2z"></path>
  </g>
</svg>
